HIERARCHY
ROOT Hips
{
	OFFSET 0.00 0.00 0.00
	CHANNELS 6 Xposition Yposition Zposition Xrotation Yrotation Zrotation
	JOINT LeftUpLeg
	{
		OFFSET 3.31716 0.00000 0.00000
		CHANNELS 3 Xrotation Yrotation Zrotation
		JOINT LeftLeg
		{
			OFFSET 0.00000 -16.62131 0.00000
			CHANNELS 3 Xrotation Yrotation Zrotation
			JOINT LeftFoot
			{
				OFFSET 0.00000 -16.13209 0.00000
				CHANNELS 3 Xrotation Yrotation Zrotation
				JOINT LeftToeBase
				{
					OFFSET 0.00000 -1.70543 6.36475
					CHANNELS 3 Xrotation Yrotation Zrotation
					End Site
					{
						OFFSET 0.00000 0.00000 2.95275
					}
				}
			}
		}
	}
	JOINT RightUpLeg
	{
		OFFSET -3.31716 0.00000 0.00000
		CHANNELS 3 Xrotation Yrotation Zrotation
		JOINT RightLeg
		{
			OFFSET 0.00000 -16.62131 0.00000
			CHANNELS 3 Xrotation Yrotation Zrotation
			JOINT RightFoot
			{
				OFFSET 0.00000 -16.13209 0.00000
				CHANNELS 3 Xrotation Yrotation Zrotation
				JOINT RightToeBase
				{
					OFFSET 0.00000 -1.70543 6.36475
					CHANNELS 3 Xrotation Yrotation Zrotation
					End Site
					{
						OFFSET 0.00000 0.00000 2.95275
					}
				}
			}
		}
	}
	JOINT Spine
	{
		OFFSET 0.00000 0.03937 0.00000
		CHANNELS 3 Xrotation Yrotation Zrotation
		JOINT Spine1
		{
			OFFSET 0.00000 9.21679 0.00000
			CHANNELS 3 Xrotation Yrotation Zrotation
			JOINT Neck
			{
				OFFSET 0.00000 8.81927 0.00000
				CHANNELS 3 Xrotation Yrotation Zrotation
				JOINT Head
				{
					OFFSET 0.00000 6.84636 0.00000
					CHANNELS 3 Xrotation Yrotation Zrotation
					End Site
					{
						OFFSET 0.00000 4.52755 0.00000
					}
				}
			}
			JOINT LeftShoulder
			{
				OFFSET 0.00000 8.81927 0.00000
				CHANNELS 3 Xrotation Yrotation Zrotation
				JOINT LeftArm
				{
					OFFSET 7.31373 -0.00003 0.00000
					CHANNELS 3 Xrotation Yrotation Zrotation
					JOINT LeftForeArm
					{
						OFFSET 10.82262 -0.00004 0.00000
						CHANNELS 3 Xrotation Yrotation Zrotation
						JOINT LeftHand
						{
							OFFSET 10.14781 -0.00004 0.00000
							CHANNELS 3 Xrotation Yrotation Zrotation
							JOINT LeftHandThumb
							{
								OFFSET 0.00000 0.00000 0.00000
								CHANNELS 3 Xrotation Yrotation Zrotation
								End Site
								{
									OFFSET 0.00000 0.00000 3.93700
								}
							}
							JOINT L_Wrist_End
							{
								OFFSET 3.93700 -0.00001 0.00000
								CHANNELS 3 Xrotation Yrotation Zrotation
							}
						}
					}
				}
			}
			JOINT RightShoulder
			{
				OFFSET 0.00000 8.81927 0.00000
				CHANNELS 3 Xrotation Yrotation Zrotation
				JOINT RightArm
				{
					OFFSET -7.31373 -0.00003 0.00000
					CHANNELS 3 Xrotation Yrotation Zrotation
					JOINT RightForeArm
					{
						OFFSET -10.82262 -0.00004 0.00000
						CHANNELS 3 Xrotation Yrotation Zrotation
						JOINT RightHand
						{
							OFFSET -10.14781 -0.00004 0.00000
							CHANNELS 3 Xrotation Yrotation Zrotation
							JOINT RightHandThumb
							{
								OFFSET 0.00000 0.00000 0.00000
								CHANNELS 3 Xrotation Yrotation Zrotation
								End Site
								{
									OFFSET 0.00000 0.00000 3.93700
								}
							}
							JOINT R_Wrist_End
							{
								OFFSET -5.39369 -0.00002 0.00000
								CHANNELS 3 Xrotation Yrotation Zrotation
							}
						}
					}
				}
			}
		}
	}
}
MOTION
Frames: 18
Frame Time: 0.008333
 -0.3173 34.8790 -2.8023 6.0446 -3.7956 1.6629 -7.2137 16.2988 6.8764 14.3018 -0.0000 0.0000 -8.8463 1.0515 -2.5226 -13.6823 0.0000 -0.0000 -13.1381 -0.2086 -8.5935 21.8529 -0.0000 -0.0000 -15.0392 -1.1469 3.8506 -17.1909 0.0000 0.0000 -5.1090 0.7149 -2.7138 -2.0198 -3.8020 2.0093 11.0241 4.9964 1.8510 -9.9648 -4.8756 2.3683 -9.5090 3.6820 18.8189 -6.5093 3.4721 -44.2647 -0.0001 -22.8806 -0.0000 12.0597 -3.4649 15.4008 0.0000 0.0000 -0.0000 0.0000 0.0000 -0.0000 -18.7587 1.0928 -17.4313 -0.1052 9.0312 37.7105 -0.0001 23.5173 0.0000 19.3378 -2.2969 -9.7962 0.0000 -0.0000 0.0000 0.0000 -0.0000 0.0000
 -0.4219 34.8659 -2.7984 6.0918 -3.6630 1.5702 -7.6646 16.2905 7.2575 14.8941 0.0000 0.0000 -8.9565 0.8829 -2.4658 -13.7602 -0.0000 -0.0000 -12.6997 -0.1034 -8.3255 20.8749 -0.0000 0.0000 -14.6354 -1.2803 4.2511 -16.6641 0.0000 0.0000 -5.1717 0.7656 -2.5689 -2.0610 -3.8255 2.0436 10.9837 5.0492 1.8383 -9.9532 -5.0440 2.2437 -9.3645 3.8655 18.5733 -6.2136 3.1079 -45.2692 -0.0001 -23.6144 -0.0000 12.7160 -3.7680 15.1387 -0.0000 0.0000 0.0000 -0.0000 0.0000 0.0000 -18.6688 0.9520 -17.3722 0.0660 9.1408 37.8063 -0.0001 23.9406 0.0000 19.4128 -2.2877 -9.7221 0.0000 0.0000 0.0000 0.0000 0.0000 0.0000
 -0.5361 34.8495 -2.7963 6.1555 -3.5960 1.4712 -8.1378 16.3303 7.6827 15.4891 -0.0000 0.0000 -9.1004 0.6928 -2.5949 -13.7374 0.0000 -0.0000 -12.3307 -0.0390 -8.0268 20.1157 -0.0000 0.0000 -14.6384 -1.4994 4.7465 -16.3645 0.0000 0.0000 -5.2297 0.7552 -2.4006 -2.1643 -3.7961 2.0108 10.9738 4.9520 1.8649 -9.9082 -4.9465 2.1998 -9.2114 4.0023 18.4293 -5.8646 2.9055 -46.3753 -0.0001 -24.4670 -0.0000 13.0373 -3.6485 15.1511 -0.0000 -0.0000 -0.0000 -0.0000 -0.0000 -0.0000 -18.6517 0.8610 -17.2359 0.2894 9.3568 37.9167 -0.0001 24.2335 0.0000 19.5085 -2.3455 -9.7253 0.0000 -0.0000 0.0000 0.0000 -0.0000 0.0000
 -0.6525 34.8340 -2.7928 6.1898 -3.5740 1.3583 -8.5860 16.3634 8.1216 16.1093 -0.0000 0.0000 -9.2352 0.5621 -2.6379 -13.7613 0.0000 0.0000 -12.0066 0.0732 -7.6877 19.6122 -0.0000 0.0000 -14.9753 -1.7326 4.6453 -16.4049 0.0000 -0.0000 -5.2753 0.8378 -2.2409 -2.2100 -3.7925 2.0614 10.9245 5.0063 1.8859 -9.9226 -5.0432 2.0103 -9.1291 4.1994 18.2427 -5.4098 2.4788 -47.4990 -0.0001 -25.2391 -0.0000 12.9277 -3.6307 15.2520 -0.0000 0.0000 0.0000 -0.0000 0.0000 0.0000 -18.5275 0.7498 -17.1110 0.4665 9.5154 37.9309 -0.0001 24.6695 0.0000 19.5057 -2.4229 -9.6833 0.0000 0.0000 -0.0000 0.0000 0.0000 -0.0000
 -0.7776 34.8188 -2.7959 6.2435 -3.5681 1.2487 -9.0899 16.3420 8.5767 16.7789 -0.0000 0.0000 -9.3286 0.4789 -2.6149 -13.8149 0.0000 0.0000 -11.8118 0.1075 -7.3469 19.2499 -0.0000 0.0000 -15.2201 -1.8655 4.7028 -16.2504 0.0000 -0.0000 -5.3338 0.8477 -2.0709 -2.2606 -3.7416 2.0573 10.8855 4.9791 1.8543 -9.9084 -4.9771 2.0410 -9.0180 4.3230 18.0700 -4.9237 2.1532 -48.5694 -0.0001 -25.9869 -0.0000 13.2714 -3.6781 15.3032 0.0000 0.0000 -0.0000 0.0000 0.0000 -0.0000 -18.4880 0.6576 -16.9732 0.6242 9.7819 38.0384 -0.0001 24.9028 0.0000 19.5665 -2.4984 -9.7404 -0.0000 -0.0000 0.0000 -0.0000 -0.0000 0.0000
 -0.9058 34.8086 -2.7931 6.2462 -3.5953 1.0777 -9.5284 16.2821 9.0835 17.4325 0.0000 0.0000 -9.4214 0.4661 -2.5872 -13.8506 0.0000 -0.0000 -11.6013 0.1466 -6.9444 18.9325 -0.0000 0.0000 -15.3498 -1.9741 4.7720 -16.1615 0.0000 -0.0000 -5.3630 0.9411 -1.8721 -2.2438 -3.7332 2.1375 10.7236 5.0194 1.8954 -9.8379 -5.0234 1.8124 -8.8994 4.5558 17.8593 -4.5185 1.7798 -49.6956 -0.0001 -26.7666 -0.0000 13.4540 -3.7505 15.3426 0.0000 0.0000 0.0000 0.0000 0.0000 0.0000 -18.4357 0.5202 -16.8420 0.7430 9.9698 38.0932 -0.0001 25.2958 0.0000 19.7046 -2.5193 -9.7639 0.0000 0.0000 -0.0000 0.0000 0.0000 -0.0000
 -1.0482 34.8040 -2.7987 6.2419 -3.6557 0.8147 -10.0414 16.1842 9.7228 18.1635 -0.0000 0.0000 -9.4684 0.4658 -2.5007 -13.8878 0.0000 0.0000 -11.5341 0.0687 -6.4404 18.7886 -0.0000 0.0000 -15.3231 -1.9173 4.6622 -15.9903 0.0000 0.0000 -5.4491 0.8964 -1.6164 -2.1594 -3.7446 2.2416 10.6722 5.0960 1.8131 -9.7931 -4.8969 1.8227 -8.6038 4.6865 17.5648 -4.0683 1.7504 -50.6643 -0.0001 -27.6810 -0.0000 13.5827 -3.7264 15.3580 0.0000 0.0000 -0.0000 0.0000 0.0000 -0.0000 -18.3692 0.6282 -16.6317 0.7796 10.0695 38.2150 -0.0001 25.6261 0.0000 19.8148 -2.5932 -9.7508 -0.0000 0.0000 -0.0000 -0.0000 0.0000 -0.0000
 -1.1953 34.8036 -2.7994 6.1797 -3.8054 0.5340 -10.4635 16.1035 10.3808 18.8675 -0.0000 0.0000 -9.4872 0.5437 -2.3939 -13.9691 -0.0000 -0.0000 -11.3503 0.3096 -5.8830 18.5723 -0.0000 0.0000 -15.2005 -2.0328 4.7674 -15.9693 0.0000 0.0000 -5.4480 1.0091 -1.3683 -2.0638 -3.7301 2.3746 10.4514 5.2023 1.8558 -9.6557 -4.9052 1.6414 -8.3193 4.9522 17.3908 -3.8696 1.6163 -51.8794 -0.0001 -28.5210 -0.0000 13.9965 -3.5231 15.3463 -0.0000 0.0000 -0.0000 -0.0000 0.0000 -0.0000 -18.4041 0.5973 -16.4835 0.8753 10.1435 38.3909 -0.0001 26.0313 0.0000 20.0221 -2.5571 -9.8375 -0.0000 -0.0000 0.0000 -0.0000 -0.0000 0.0000
 -1.3472 34.8090 -2.7975 6.0944 -3.8661 0.1914 -10.9116 15.9535 11.1210 19.6109 -0.0000 0.0000 -9.4514 0.5064 -2.4913 -13.9939 0.0000 -0.0000 -11.2100 0.3544 -5.2810 18.4982 -0.0000 0.0000 -15.1279 -2.0547 4.5929 -15.8128 0.0000 0.0000 -5.4242 0.9770 -1.0874 -2.0118 -3.7235 2.5601 10.3877 5.2486 1.7677 -9.6691 -4.8166 1.6216 -8.1475 5.1717 17.0284 -3.4495 1.4604 -52.8840 -0.0001 -29.2833 -0.0000 14.5131 -3.4787 15.3340 0.0000 -0.0000 -0.0000 0.0000 -0.0000 -0.0000 -18.2642 0.5915 -16.3496 0.8645 10.2732 38.5673 -0.0001 26.4424 0.0000 20.1541 -2.7176 -9.7953 -0.0000 -0.0000 -0.0000 -0.0000 -0.0000 -0.0000
 -1.4976 34.8162 -2.7962 5.9872 -4.0026 -0.1059 -11.3339 15.8542 11.8226 20.3787 -0.0000 0.0000 -9.3389 0.5097 -2.6304 -14.1656 0.0000 0.0000 -11.0432 0.4475 -4.7221 18.3695 -0.0000 0.0000 -14.9717 -2.0366 4.4826 -15.7930 0.0000 -0.0000 -5.3517 1.0581 -0.8359 -1.9582 -3.7536 2.7242 10.2202 5.4072 1.8036 -9.6295 -4.8363 1.4023 -8.0035 5.4794 16.8636 -3.1517 1.3670 -54.1812 -0.0001 -29.9741 -0.0000 15.0417 -3.4078 15.4718 -0.0000 0.0000 -0.0000 -0.0000 0.0000 -0.0000 -18.2645 0.5917 -16.2422 0.9968 10.4195 38.7903 -0.0001 26.8702 0.0000 20.1557 -2.6504 -9.8145 -0.0000 0.0000 -0.0000 -0.0000 0.0000 -0.0000
 -1.6516 34.8255 -2.7931 5.8393 -4.0770 -0.3810 -11.6685 15.5893 12.4731 21.1132 -0.0000 0.0000 -9.1551 0.5737 -2.8355 -14.2649 0.0000 -0.0000 -10.8570 0.3711 -4.2088 18.3015 -0.0000 0.0000 -14.8382 -1.9269 4.2464 -15.6741 0.0000 0.0000 -5.2749 1.0282 -0.6419 -1.9005 -3.7292 2.9364 10.1823 5.4245 1.7318 -9.6512 -4.7225 1.3703 -7.7671 5.6413 16.5615 -2.7188 1.2802 -55.3227 -0.0001 -30.6948 -0.0000 15.2448 -3.1888 15.6296 -0.0000 -0.0000 -0.0000 -0.0000 -0.0000 -0.0000 -18.0971 0.6119 -16.1399 0.9751 10.5270 39.0149 -0.0001 27.2401 0.0000 20.1308 -2.7209 -9.7667 -0.0000 -0.0000 0.0000 -0.0000 -0.0000 0.0000
 -1.7888 34.8327 -2.7923 5.7125 -4.1731 -0.4159 -11.9561 15.3916 12.8538 21.8443 -0.0000 0.0000 -8.8805 0.6197 -2.9476 -14.4426 0.0000 -0.0000 -10.7360 0.2203 -3.9723 18.2795 -0.0000 0.0000 -14.8130 -1.6486 4.1510 -15.4980 0.0000 -0.0000 -5.2039 1.1177 -0.5533 -1.8111 -3.7392 2.9909 10.0697 5.5647 1.7633 -9.7261 -4.7566 1.1891 -7.5822 5.8570 16.4608 -2.4478 1.2176 -56.7286 -0.0001 -31.2020 -0.0000 15.7361 -3.0926 15.8785 -0.0000 0.0000 -0.0000 -0.0000 0.0000 -0.0000 -18.0942 0.6027 -16.1094 1.0614 10.6486 39.3465 -0.0001 27.5997 0.0000 19.9733 -2.6246 -9.7092 -0.0000 0.0000 -0.0000 -0.0000 0.0000 -0.0000
 -1.9579 34.8442 -2.7934 5.5751 -4.2525 -0.7164 -12.4307 15.2088 13.6268 22.7527 0.0000 0.0000 -8.6454 0.4732 -3.2308 -14.5913 -0.0000 -0.0000 -10.4960 0.2192 -3.3745 18.0742 -0.0000 0.0000 -14.6068 -1.6242 3.7879 -15.5760 0.0000 -0.0000 -5.0903 1.0634 -0.4063 -1.8168 -3.7364 3.2635 10.1034 5.5919 1.7268 -9.8516 -4.5970 1.1237 -7.3580 6.0722 16.2072 -1.9878 0.9796 -57.9043 -0.0001 -31.6267 -0.0000 15.7188 -3.1968 16.1532 0.0000 0.0000 0.0000 0.0000 0.0000 0.0000 -17.9378 0.6623 -15.8769 1.2245 10.8301 39.3758 -0.0001 27.9991 0.0000 19.7440 -2.5671 -9.5568 0.0000 0.0000 0.0000 0.0000 0.0000 0.0000
 -2.0921 34.8537 -2.7964 5.4810 -4.2854 -0.6180 -12.7579 14.9271 13.8661 23.5533 -0.0000 0.0000 -8.2348 0.4858 -3.3938 -14.9883 -0.0000 -0.0000 -10.3638 0.1220 -3.2661 17.9824 -0.0000 0.0000 -14.6029 -1.4684 3.7223 -15.6145 0.0000 -0.0000 -5.0782 1.1339 -0.3653 -1.7054 -3.7597 3.2309 10.1035 5.7925 1.6356 -10.0371 -4.7271 1.0923 -7.1871 6.1144 16.0252 -1.5243 0.8548 -59.1354 -0.0001 -32.0039 -0.0000 15.7294 -3.2584 16.3491 -0.0000 -0.0000 0.0000 -0.0000 -0.0000 0.0000 -17.8461 0.6556 -15.8815 1.2027 10.9191 39.7753 -0.0001 28.3444 0.0000 19.8025 -2.3366 -9.4560 0.0000 -0.0000 0.0000 0.0000 -0.0000 0.0000
 -2.2597 34.8646 -2.8026 5.4017 -4.2825 -0.8029 -13.3242 14.6484 14.5238 24.5599 -0.0000 0.0000 -7.8811 0.2809 -3.6775 -15.2633 0.0000 -0.0000 -10.1057 0.1652 -2.7729 17.6514 -0.0000 0.0000 -14.4791 -1.5885 3.4945 -15.5009 0.0000 0.0000 -5.0784 1.0719 -0.2714 -1.5809 -3.7564 3.4128 10.0078 5.7555 1.6522 -10.0266 -4.5636 0.9935 -6.9794 6.2834 15.7868 -1.1736 0.5066 -60.2701 -0.0001 -32.2429 -0.0000 15.7104 -3.2219 16.3729 -0.0000 -0.0000 0.0000 -0.0000 -0.0000 0.0000 -17.8054 0.6759 -15.6850 1.4501 11.2026 39.8378 -0.0001 28.6686 0.0000 19.6251 -2.2578 -9.3468 0.0000 -0.0000 0.0000 0.0000 -0.0000 0.0000
 -2.4121 34.8746 -2.8112 5.3527 -4.2224 -0.8009 -13.8919 14.3340 14.9489 25.5925 -0.0000 0.0000 -7.4438 0.0959 -3.7646 -15.6613 0.0000 -0.0000 -9.9063 0.0791 -2.5336 17.3622 -0.0000 0.0000 -14.4331 -1.5525 3.4781 -15.4230 0.0000 0.0000 -5.1011 1.1133 -0.1951 -1.4785 -3.8143 3.3910 9.9410 5.8632 1.6522 -10.0392 -4.6300 0.8939 -6.7863 6.3007 15.5935 -0.8005 0.2682 -61.4066 -0.0001 -32.4375 -0.0000 15.6624 -3.3135 16.3087 -0.0000 -0.0000 -0.0000 -0.0000 -0.0000 -0.0000 -17.7420 0.7015 -15.6131 1.6740 11.3490 40.1004 -0.0001 29.0295 0.0000 19.6353 -2.2379 -9.3032 -0.0000 0.0000 0.0000 -0.0000 0.0000 0.0000
 -2.5752 34.8838 -2.8228 5.3339 -4.1935 -0.8554 -14.5578 14.0173 15.4779 26.7014 0.0000 -0.0000 -6.9580 -0.1519 -3.9287 -16.0671 0.0000 0.0000 -9.7299 -0.0007 -2.2011 17.0447 -0.0000 0.0000 -14.3483 -1.5250 3.2630 -15.3201 0.0000 -0.0000 -5.1576 1.0445 -0.1149 -1.3674 -3.8111 3.4277 9.9634 5.9186 1.5738 -10.1697 -4.5615 0.9340 -6.5652 6.3698 15.3459 -0.4775 -0.0254 -62.4165 -0.0001 -32.5399 -0.0000 15.6446 -3.3312 15.9335 -0.0000 -0.0000 -0.0000 -0.0000 -0.0000 -0.0000 -17.6948 0.7183 -15.5003 1.8101 11.6265 40.3471 -0.0001 29.2748 0.0000 19.7086 -2.1778 -9.1915 -0.0000 0.0000 -0.0000 -0.0000 0.0000 -0.0000
 -2.7392 34.8933 -2.8290 5.2740 -4.0763 -0.8778 -15.3422 13.8009 16.0307 28.0371 -0.0000 0.0000 -6.4393 -0.6055 -3.9050 -16.5448 0.0000 0.0000 -9.4408 -0.1592 -1.9302 16.6334 -0.0000 0.0000 -14.2622 -1.5044 3.2501 -15.3771 0.0000 -0.0000 -5.1561 1.0695 -0.0359 -1.2968 -3.8834 3.3931 9.9009 5.9721 1.5858 -10.1554 -4.6170 0.8344 -6.3399 6.4743 15.1079 -0.2235 -0.5407 -63.3847 -0.0001 -32.5332 -0.0000 15.4065 -3.5274 15.6054 0.0000 0.0000 0.0000 0.0000 0.0000 0.0000 -17.6153 0.6610 -15.3922 2.0489 11.8349 40.5738 -0.0001 29.6712 0.0000 19.8731 -2.2217 -9.2132 0.0000 0.0000 0.0000 0.0000 0.0000 0.0000
